<?xml version="1.0" standalone="no"?>
<!DOCTYPE svg PUBLIC "-//W3C//DTD SVG 20010904//EN"
 "http://www.w3.org/TR/2001/REC-SVG-20010904/DTD/svg10.dtd">
<svg version="1.0" xmlns="http://www.w3.org/2000/svg"
 width="260.000000pt" height="260.000000pt" viewBox="0 0 260.000000 260.000000"
 preserveAspectRatio="xMidYMid meet">
<metadata>
Created by potrace 1.11, written by Peter Selinger 2001-2013
</metadata>
<g transform="translate(0.000000,260.000000) scale(0.100000,-0.100000)"
fill="#000000" stroke="none">
<path d="M1317 2224 c-1 -1 -31 -4 -67 -8 -197 -19 -426 -105 -484 -183 -37
-50 -7 -153 68 -238 29 -32 35 -45 31 -75 -2 -19 -7 -64 -10 -100 -4 -36 -9
-74 -11 -85 -2 -11 -9 -49 -14 -85 -18 -111 -87 -378 -140 -540 -62 -188 -80
-263 -74 -298 7 -37 44 -98 94 -155 70 -79 135 -100 166 -52 26 40 68 151 140
367 36 112 69 207 72 212 2 4 21 -23 41 -60 56 -106 113 -184 203 -280 83 -88
218 -196 260 -210 13 -4 25 -10 28 -13 13 -16 129 -43 186 -42 68 0 117 19
134 50 15 30 12 73 -8 104 -10 15 -114 121 -230 235 -207 204 -233 235 -247
299 -8 40 1 49 164 167 135 98 195 155 262 250 75 106 104 198 102 321 -4 210
-200 379 -476 411 -39 5 -186 11 -190 8z m223 -383 c109 -56 57 -209 -120
-352 -40 -32 -182 -132 -219 -154 -14 -8 -14 -7 4 84 2 13 7 56 11 95 4 39 7
77 9 84 4 32 -14 122 -34 162 -12 24 -21 47 -21 51 0 8 105 42 160 52 48 10
175 -4 210 -22z"/>
</g>
</svg>
