<?xml version="1.0" encoding="utf-8"?>
<!-- Generator: Adobe Illustrator 24.1.2, SVG Export Plug-In . SVG Version: 6.00 Build 0)  -->
<svg version="1.1" id="Layer_1" xmlns="http://www.w3.org/2000/svg" xmlns:xlink="http://www.w3.org/1999/xlink" x="0px" y="0px"
	 viewBox="0 0 20 20" style="enable-background:new 0 0 20 20;" xml:space="preserve">
<style type="text/css">
	.st0{fill:#FFFFFF;}
</style>
<path class="st0" d="M18.4,18.5"/>
<path class="st0" d="M17.5,20c-1.4,0-2.5-1.1-2.5-2.5c0-1.8-0.1-3.6-0.5-4.3c-0.4-0.7-3.7-0.7-7.3-0.7c-1.4,0-2.5-1.1-2.5-2.5
	s1.1-2.5,2.5-2.5C18,7.5,20,8,20,17.5C20,18.9,18.9,20,17.5,20z"/>
<path class="st0" d="M9.5,18.5c-0.6,0-1.3-0.2-1.8-0.7L0,10l7.8-7.8c1-1,2.6-1,3.5,0c1,1,1,2.6,0,3.5L7.1,10l4.2,4.2
	c1,1,1,2.6,0,3.5C10.8,18.2,10.1,18.5,9.5,18.5z"/>
</svg>
