<svg width="30" height="21" viewBox="0 0 30 21" fill="none" xmlns="http://www.w3.org/2000/svg">
    <path d="M28 8.5H2C0.89543 8.5 0 9.39543 0 10.5C0 11.6046 0.89543 12.5 2 12.5H28C29.1046 12.5 30 11.6046 30 10.5C30 9.39543 29.1046 8.5 28 8.5Z"/>
    <path d="M28 16.5H2C0.89543 16.5 0 17.3954 0 18.5C0 19.6046 0.89543 20.5 2 20.5H28C29.1046 20.5 30 19.6046 30 18.5C30 17.3954 29.1046 16.5 28 16.5Z"/>
    <path d="M28 0.5H2C0.89543 0.5 0 1.39543 0 2.5C0 3.60457 0.89543 4.5 2 4.5H28C29.1046 4.5 30 3.60457 30 2.5C30 1.39543 29.1046 0.5 28 0.5Z"/>
</svg>
