<svg width="25" height="26" viewBox="0 0 25 26" fill="none" xmlns="http://www.w3.org/2000/svg">
<g clip-path="url(#clip0)">
<path d="M15.6912 4.16406L1.60294 18.4429C1.25047 18.7945 1.01868 19.2496 0.941176 19.7424L0 25.2797L5.52941 24.3199C6.0267 24.2301 6.484 23.9876 6.83823 23.6259L20.8824 9.37651L15.6912 4.16406Z" fill="#5AADDD"/>
<path d="M23.9114 1.06048C23.2198 0.369776 22.284 -0.0179443 21.3085 -0.0179443C20.333 -0.0179443 19.3972 0.369776 18.7056 1.06048L16.9556 2.83242L22.1614 8.05965L23.9409 6.25817C24.6159 5.5611 24.9912 4.62557 24.9857 3.65328C24.9802 2.68099 24.5944 1.74981 23.9114 1.06048Z" fill="#5AADDD"/>
</g>
<defs>
<clipPath id="clip0">
<rect width="25" height="25.2797" fill="white"/>
</clipPath>
</defs>
</svg>
