<?xml version="1.0" encoding="utf-8"?>
<!-- Generator: Adobe Illustrator 24.1.2, SVG Export Plug-In . SVG Version: 6.00 Build 0)  -->
<svg version="1.1" id="Layer_1" xmlns="http://www.w3.org/2000/svg" xmlns:xlink="http://www.w3.org/1999/xlink" x="0px" y="0px"
	 viewBox="0 0 17 20" style="enable-background:new 0 0 17 20;" xml:space="preserve">
<style type="text/css">
	.st0{fill:#FFFFFF;}
</style>
<path class="st0" d="M16.3,1.2"/>
<path class="st0" d="M17,10.5c0,0.6-0.2,1.3-0.7,1.8L8.5,20l-7.8-7.8c-1-1-1-2.6,0-3.5c1-1,2.6-1,3.5,0l4.2,4.2l4.2-4.2
	c1-1,2.6-1,3.5,0C16.8,9.2,17,9.9,17,10.5z"/>
<path class="st0" d="M8.5,18.4c-1.4,0-2.5-1.1-2.5-2.5V2.5C6,1.1,7.1,0,8.5,0C9.9,0,11,1.1,11,2.5v13.4C11,17.3,9.9,18.4,8.5,18.4z"
	/>
</svg>
