<svg width="45" height="45" viewBox="0 0 45 45" fill="white" xmlns="http://www.w3.org/2000/svg">
    <g clip-path="url(#clip0)">
        <path d="M22.5 4C26.159 4 29.7358 5.08501 32.7781 7.11781C35.8204 9.15062 38.1916 12.0399 39.5918 15.4204C40.992 18.8008 41.3584 22.5205 40.6445 26.1092C39.9307 29.6978 38.1688 32.9942 35.5815 35.5815C32.9942 38.1687 29.6978 39.9307 26.1092 40.6445C22.5205 41.3584 18.8008 40.992 15.4204 39.5918C12.0399 38.1915 9.15063 35.8204 7.11782 32.778C5.08502 29.7357 4.00001 26.159 4.00001 22.5C4.0053 17.5951 5.95611 12.8926 9.42438 9.42437C12.8927 5.9561 17.5951 4.00529 22.5 4ZM22.5 0C18.0499 0 13.6998 1.3196 9.99968 3.79193C6.29957 6.26427 3.41569 9.77829 1.71272 13.8896C0.00974894 18.001 -0.435826 22.525 0.432341 26.8895C1.30051 31.2541 3.44343 35.2632 6.59011 38.4099C9.73679 41.5566 13.7459 43.6995 18.1105 44.5677C22.475 45.4358 26.999 44.9903 31.1104 43.2873C35.2217 41.5843 38.7357 38.7004 41.2081 35.0003C43.6804 31.3002 45 26.9501 45 22.5C45 16.5326 42.6295 10.8097 38.4099 6.5901C34.1903 2.37053 28.4674 0 22.5 0V0Z" />
        <path d="M22.5 28C27.1944 28 31 24.1944 31 19.5C31 14.8056 27.1944 11 22.5 11C17.8056 11 14 14.8056 14 19.5C14 24.1944 17.8056 28 22.5 28Z" />
        <path d="M22.5 45C28.2674 45.0106 33.8177 42.8013 38 38.83C38 34.7191 36.367 30.7766 33.4602 27.8698C30.5533 24.963 26.6109 23.33 22.5 23.33C18.3891 23.33 14.4467 24.963 11.5398 27.8698C8.63303 30.7766 7 34.7191 7 38.83C11.1823 42.8013 16.7326 45.0106 22.5 45Z" />
    </g>
    <defs>
        <clipPath id="clip0">
            <rect width="45" height="45" />
        </clipPath>
    </defs>
</svg>
